<svg width="164" height="36" fill="none" xmlns="http://www.w3.org/2000/svg"><path fill-rule="evenodd" clip-rule="evenodd" d="M14.32 1.4c4.64 0 8.52 1.608 11.64 4.824 3.12 3.216 4.68 7.208 4.68 11.976 0 4.768-1.56 8.76-4.68 11.976-3.12 3.216-7 4.824-11.64 4.824H.88V1.4h13.44zm0 26.208c2.656 0 4.808-.856 6.456-2.568 1.648-1.712 2.472-3.992 2.472-6.84s-.824-5.128-2.472-6.84c-1.648-1.712-3.8-2.568-6.456-2.568H8.56v18.816h5.76zm28.8 0h13.44V35H35.44V1.4h20.88v7.392h-13.2v5.568h12v7.296h-12v5.952zM69.424 35L58.48 1.4h8.4l7.44 24.72L81.76 1.4h8.4L79.216 35h-9.792zM93.52 1.4h7.68V35h-7.68V1.4zm29.952 34.272c-5.024 0-9.192-1.672-12.504-5.016C107.656 27.312 106 23.16 106 18.2c0-4.96 1.656-9.112 4.968-12.456C114.28 2.4 118.448.728 123.472.728c3.008 0 5.792.696 8.352 2.088 2.56 1.392 4.576 3.288 6.048 5.688l-6.624 3.84c-.736-1.312-1.792-2.328-3.168-3.048-1.376-.72-2.912-1.08-4.608-1.08-2.976 0-5.352.912-7.128 2.736-1.776 1.824-2.664 4.24-2.664 7.248s.888 5.424 2.664 7.248c1.776 1.824 4.152 2.736 7.128 2.736 1.696 0 3.24-.368 4.632-1.104 1.392-.736 2.44-1.744 3.144-3.024l6.624 3.84c-1.44 2.4-3.44 4.296-6 5.688-2.56 1.392-5.36 2.088-8.4 2.088zm26.16-8.064h13.44V35h-21.12V1.4h20.88v7.392h-13.2v5.568h12v7.296h-12v5.952z" fill="#FFC600"/></svg>