<svg width="32" height="32" fill="none" xmlns="http://www.w3.org/2000/svg"><g fill="#fff"><path d="M20.916 16a4.938 4.938 0 11-9.877 0c0-.394.051-.773.138-1.14h-.897v6.838h11.396V14.86h-.897c.086.367.137.746.137 1.14z"/><path fill-rule="evenodd" clip-rule="evenodd" d="M21.676 10.302h-3.039v3.039h3.039v-3.039zM18.637 16a2.662 2.662 0 01-2.659 2.659A2.662 2.662 0 0113.319 16a2.662 2.662 0 012.659-2.659A2.662 2.662 0 0118.637 16z"/><path fill-rule="evenodd" clip-rule="evenodd" d="M0 16C0 7.164 7.164 0 16 0c8.837 0 16 7.164 16 16 0 8.837-7.163 16-16 16-8.836 0-16-7.163-16-16zm21.676 7.977a2.285 2.285 0 002.279-2.279h-.001V10.302a2.286 2.286 0 00-2.279-2.279H10.279A2.286 2.286 0 008 10.302v11.396a2.285 2.285 0 002.279 2.279h11.397z"/></g></svg>